<svg xmlns="http://www.w3.org/2000/svg" viewBox="227 267 154 154">
  <defs>
    <linearGradient id="wineGrad" x1="0%" y1="0%" x2="100%" y2="100%">
      <stop offset="0%" stop-color="#E61C53"/>
      <stop offset="100%" stop-color="#7B0323"/>
    </linearGradient>
  </defs>
  
  <g fill="url(#wineGrad)">
    <path d="M329.24,358.88l-22.57,22.61c-7.85,7.86-20.58,7.86-28.44,0.02l-23.01-22.98c-7.86-7.85-7.87-20.58-0.02-28.44l22.98-23.01c7.85-7.86,20.58-7.87,28.44-0.02l22.5,22.47c5.16,5.16,13.53,5.15,18.69-0.01s5.15-13.53-0.01-18.69l-20.6-20.57c-6.42-6.41-16.81-6.4-23.21,0.01c-6.41,6.42-16.79,6.43-23.21,0.02c-3.21-3.2-7.4-4.8-11.6-4.8c-4.2,0-8.39,1.61-11.6,4.82l-19.18,19.21c-6.41,6.42-6.4,16.81,0.01,23.21c3.21,3.2,4.81,7.4,4.82,11.6c0,4.2-1.6,8.4-4.8,11.6c-3.2,3.2-4.8,7.41-4.79,11.61c0,4.2,1.61,8.39,4.82,11.6l19.21,19.18c6.42,6.41,16.8,6.39,23.2-0.02c3.2-3.21,7.4-4.81,11.61-4.81c4.2,0,8.4,1.6,11.6,4.8c3.2,3.2,7.41,4.8,11.6,4.8c4.21-0.01,8.4-1.62,11.61-4.83l20.68-20.7c5.16-5.16,5.15-13.53-0.01-18.69C342.77,353.71,334.4,353.72,329.24,358.88z"/>
    <path d="M375.84,342.88c-5.61-3.07-10.22-7.68-13.29-13.29l-1.4-2.57l-1.4,2.57c-3.07,5.61-7.68,10.22-13.29,13.29l-2.57,1.4l2.57,1.4c5.61,3.07,10.22,7.68,13.29,13.29l1.4,2.57l1.4-2.57c3.07-5.61,7.68-10.22,13.29-13.29l2.57-1.4L375.84,342.88z"/>
    <path d="M294.1,329.59l-1.4-2.57l-1.4,2.57c-3.07,5.61-7.68,10.22-13.29,13.29l-2.57,1.4l2.57,1.4c5.61,3.07,10.22,7.68,13.29,13.29l1.4,2.57l1.4-2.57c3.07-5.61,7.68-10.22,13.29-13.29l2.57-1.4l-2.57-1.4C301.78,339.81,297.17,335.2,294.1,329.59z"/>
  </g>
</svg>