<svg xmlns="http://www.w3.org/2000/svg" viewBox="220 280 660 130">
  <defs>
    <linearGradient id="brand" x1="0%" y1="0%" x2="100%" y2="0%">
      <stop offset="0%" style="stop-color:#FF2A6D"/>
      <stop offset="100%" style="stop-color:#B30D3A"/>
    </linearGradient>
  </defs>
  
  <g fill="url(#brand)">
    <path d="M329.24,358.88l-22.57,22.61c-7.85,7.86-20.58,7.86-28.44,0.02l-23.01-22.98c-7.86-7.85-7.87-20.58-0.02-28.44l22.98-23.01c7.85-7.86,20.58-7.87,28.44-0.02l22.5,22.47c5.16,5.16,13.53,5.15,18.69-0.01s5.15-13.53-0.01-18.69l-20.6-20.57c-6.42-6.41-16.81-6.4-23.21,0.01c-6.41,6.42-16.79,6.43-23.21,0.02c-3.21-3.2-7.4-4.8-11.6-4.8c-4.2,0-8.39,1.61-11.6,4.82l-19.18,19.21c-6.41,6.42-6.4,16.81,0.01,23.21c3.21,3.2,4.81,7.4,4.82,11.6c0,4.2-1.6,8.4-4.8,11.6c-3.2,3.2-4.8,7.41-4.79,11.61c0,4.2,1.61,8.39,4.82,11.6l19.21,19.18c6.42,6.41,16.8,6.39,23.2-0.02c3.2-3.21,7.4-4.81,11.61-4.81c4.2,0,8.4,1.6,11.6,4.8c3.2,3.2,7.41,4.8,11.6,4.8c4.21-0.01,8.4-1.62,11.61-4.83l20.68-20.7c5.16-5.16,5.15-13.53-0.01-18.69C342.77,353.71,334.4,353.72,329.24,358.88z"/>
    <path d="M375.84,342.88c-5.61-3.07-10.22-7.68-13.29-13.29l-1.4-2.57l-1.4,2.57c-3.07,5.61-7.68,10.22-13.29,13.29l-2.57,1.4l2.57,1.4c5.61,3.07,10.22,7.68,13.29,13.29l1.4,2.57l1.4-2.57c3.07-5.61,7.68-10.22,13.29-13.29l2.57-1.4L375.84,342.88z"/>
    <path d="M294.1,329.59l-1.4-2.57l-1.4,2.57c-3.07,5.61-7.68,10.22-13.29,13.29l-2.57,1.4l2.57,1.4c5.61,3.07,10.22,7.68,13.29,13.29l1.4,2.57l1.4-2.57c3.07-5.61,7.68-10.22,13.29-13.29l2.57-1.4l-2.57-1.4C301.78,339.81,297.17,335.2,294.1,329.59z"/>
  </g>

  <g transform="translate(315, -112)">
    
    <g fill="#FFFFFF">
      <path d="M123.77,485.36c-2.21,2.49-4.86,4.44-7.96,5.83c-3.1,1.39-6.37,2.09-9.79,2.09c-6.67,0-12.38-2.12-17.14-6.35c-5.05-4.52-7.57-10.29-7.57-17.31c0-6.79,2.32-12.63,6.96-17.53c4.64-4.9,10.5-7.35,17.57-7.35c4.12,0,8.18,1.19,12.18,3.57c1.33,0.75,2.93,1.97,4.79,3.65l-6.7,6.44c-1.22-1.28-2.81-2.33-4.79-3.18c-1.97-0.84-4.03-1.26-6.18-1.26c-4.06,0-7.45,1.51-10.18,4.52c-2.73,3.02-4.09,6.61-4.09,10.79c0,4.29,1.45,7.83,4.35,10.62c2.9,2.78,6.38,4.18,10.44,4.18c1.97,0,4.03-0.52,6.18-1.57c2.15-1.04,3.86-2.2,5.13-3.48L123.77,485.36z"/>
      <path d="M155.44,444.64l-1.39,9.4c-4.7,0.7-8.24,2.55-10.61,5.57c-2.61,3.31-3.92,8.18-3.92,14.62v18.18h-9.48v-46.98h9.48v7.4c1.98-2.61,4.4-4.62,7.26-6.05C149.64,445.35,152.52,444.64,155.44,444.64z"/>
      <path d="M205.64,472.92h-32.63v-8h22.97c-0.75-3.02-2.49-5.57-5.22-7.66c-2.73-2.09-5.69-3.13-8.87-3.13c-4.23,0-7.79,1.44-10.66,4.31c-2.87,2.87-4.31,6.48-4.31,10.83c0,4.29,1.45,7.86,4.35,10.7c2.9,2.84,6.44,4.26,10.61,4.26c1.39,0,3.6-0.75,6.61-2.26c0.99-0.46,2.38-1.25,4.18-2.35l6.87,5.92c-2.03,2.38-4.63,4.26-7.79,5.66c-3.16,1.39-6.51,2.09-10.05,2.09c-6.67,0-12.3-2.03-16.88-6.09c-4.99-4.41-7.48-10.27-7.48-17.58c0-6.61,2.44-12.35,7.31-17.23c4.87-4.87,10.56-7.31,17.05-7.31c6.55,0,12.27,2.55,17.14,7.66c4.7,4.93,7.05,10.59,7.05,16.97C205.9,470.8,205.82,471.87,205.64,472.92z"/>
      <path d="M258.71,492.41h-9.57v-3.65c0-2.03,0.49-3.92,1.48-5.66c-1.62,2.26-3.04,3.95-4.26,5.05c-3.83,3.42-8.12,5.13-12.88,5.13c-6.15,0-11.63-2.46-16.44-7.4c-4.81-4.93-7.22-10.58-7.22-16.97c0-6.21,2.39-11.73,7.18-16.57c4.79-4.84,10.16-7.26,16.14-7.26c4.81,0,9.19,1.71,13.14,5.13c1.27,1.1,2.75,2.84,4.44,5.22c-0.87-1.74-1.3-3.68-1.3-5.83v-4.18h9.31V492.41z M249.14,468.74c0-3.83-1.57-7.28-4.7-10.35c-3.13-3.07-6.61-4.61-10.44-4.61c-3.83,0-7.19,1.51-10.09,4.52c-2.9,3.02-4.35,6.53-4.35,10.53c0,4.23,1.39,7.89,4.18,10.96c2.78,3.08,6.09,4.61,9.92,4.61s7.31-1.45,10.44-4.35C247.46,476.98,249.14,473.21,249.14,468.74z"/>
      <path d="M292.3,453.6h-12.79v38.8h-9.57v-38.8h-6.53v-8.18h6.53v-15.66h9.57v15.66h12.79V453.6z"/>
      <path d="M307.78,439.94h-9.57v-10.18h9.57V439.94z M307.78,492.41h-9.57v-46.98h9.57V492.41z"/>
      <path d="M361.89,445.42l-24.52,50.18l-24.54-50.18l10.46-0.01l14.08,30.18l14.08-30.18L361.89,445.42z"/>
    </g>

    <g fill="url(#brand)">
      <path d="M425.41,467.74c0,6.51-2.32,12.29-6.96,17.35c-4.64,5.06-10.15,7.58-16.53,7.58c-3.42,0-6.5-0.69-9.22-2.06c-2.73-1.38-4.99-3.41-6.79-6.1l-1.39-2.11c0.87,1.86,1.31,3.81,1.31,5.85v19.9h-9.48v-62.73h9.48v3.65c0,0.93-0.09,1.8-0.27,2.61c-0.18,0.81-0.5,1.83-0.95,3.04c0.75-1.39,1.45-2.46,2.09-3.22c3.94-4.76,8.96-7.13,15.05-7.13c6.21,0,11.7,2.34,16.49,7.02S425.41,461.52,425.41,467.74z M415.67,467.56c0-3.78-1.38-7.08-4.13-9.9c-2.76-2.82-6.02-4.23-9.79-4.23c-3.89,0-7.34,1.34-10.35,4.01c-3.36,2.97-5.05,6.72-5.05,11.26c0,4.25,1.45,7.76,4.35,10.56c2.9,2.79,6.41,4.19,10.53,4.19c4,0,7.41-1.61,10.22-4.84S415.67,471.69,415.67,467.56z"/>
      <path d="M441.6,492.41h-9.75v-62.64h9.75V492.41z"/>
      <path d="M493.1,492.41h-9.48v-2.31c0-2.01,0.43-3.97,1.3-5.87c-1.16,2.54-3.09,4.66-5.79,6.35s-5.79,2.53-9.27,2.53c-5.57,0-10.24-1.97-14.01-5.92c-4-4.18-6-9.71-6-16.62v-25.14h9.31v23.84c0,4.52,1.1,8.15,3.31,10.88c2.2,2.73,5.02,4.09,8.44,4.09c3.83,0,6.73-0.87,8.7-2.61c2.67-2.38,4-6.47,4-12.27v-23.93h9.48V492.41z"/>
      <path d="M530.69,477.27c0,5.1-1.65,9.11-4.96,12.01c-3.02,2.67-6.82,4-11.4,4c-4.87,0-8.85-1.38-11.92-4.13c-3.08-2.75-4.61-6.48-4.61-11.18h9.22c0,1.91,0.68,3.58,2.04,5c1.36,1.42,3.18,2.13,5.44,2.13c1.86,0,3.42-0.49,4.7-1.48c1.28-0.99,1.91-2.26,1.91-3.83c0.35-2.9-1.33-5.05-5.05-6.44l-3.83-1.31c-5.39-1.86-9.06-3.81-11.01-5.87c-1.94-2.06-2.92-4.74-2.92-8.05c0-3.77,1.64-7.09,4.92-9.96c3.28-2.87,6.86-4.31,10.75-4.31c5.28,0,9.25,1.68,11.92,5.05c1.91,2.44,3.05,5.54,3.39,9.31h-9.74v-0.44c-0.41-1.16-0.75-2-1.04-2.52c-1.04-1.68-2.38-2.52-4-2.52c-1.97,0-3.48,0.49-4.52,1.48c-1.04,0.99-1.57,2.12-1.57,3.39c0.12,1.04,0.51,1.96,1.17,2.74c0.67,0.78,1.84,1.41,3.52,1.87l6.96,2.52C527.15,467.29,530.69,471.47,530.69,477.27z"/>
    </g>
    
  </g>
</svg>